<mxfile host="Electron" modified="2024-06-04T22:48:06.855Z" agent="Mozilla/5.0 (X11; Linux x86_64) AppleWebKit/537.36 (KHTML, like Gecko) draw.io/24.4.0 Chrome/122.0.6261.156 Electron/29.4.0 Safari/537.36" etag="0-gPiSSX3bq57k_dlHFf" version="24.3.1" type="device">
  <diagram name="Page-1" id="UKPZIgBDr8FDXakCmkKQ">
    <mxGraphModel dx="1231" dy="719" grid="1" gridSize="10" guides="1" tooltips="1" connect="1" arrows="1" fold="1" page="1" pageScale="1" pageWidth="827" pageHeight="1169" math="0" shadow="0">
      <root>
        <mxCell id="0" />
        <mxCell id="1" parent="0" />
        <mxCell id="4FjkceuPpHACINrKQj8p-2" value="" style="shape=image;verticalLabelPosition=bottom;labelBackgroundColor=default;verticalAlign=top;aspect=fixed;imageAspect=0;image=data:image/svg+xml,PHN2ZyB4bWxuczp4bGluaz0iaHR0cDovL3d3dy53My5vcmcvMTk5OS94bGluayIgeG1sbnM9Imh0dHA6Ly93d3cudzMub3JnLzIwMDAvc3ZnIiB2ZXJzaW9uPSIxLjEiIHZpZXdCb3g9IjAgMCAyMCAyMCIgaGVpZ2h0PSI4MDBweCIgd2lkdGg9IjgwMHB4Ij4mI3hhOyAgICAmI3hhOyAgICA8dGl0bGU+d2luZG93cyBbIzE3NF08L3RpdGxlPiYjeGE7ICAgIDxkZXNjPkNyZWF0ZWQgd2l0aCBTa2V0Y2guPC9kZXNjPiYjeGE7ICAgIDxkZWZzPiYjeGE7JiN4YTs8L2RlZnM+JiN4YTsgICAgPGcgZmlsbC1ydWxlPSJldmVub2RkIiBmaWxsPSJub25lIiBzdHJva2Utd2lkdGg9IjEiIHN0cm9rZT0ibm9uZSIgaWQ9IlBhZ2UtMSI+JiN4YTsgICAgICAgIDxnIGZpbGw9IiMwMDAwMDAiIHRyYW5zZm9ybT0idHJhbnNsYXRlKC02MC4wMDAwMDAsIC03NDM5LjAwMDAwMCkiIGlkPSJEcmliYmJsZS1MaWdodC1QcmV2aWV3Ij4mI3hhOyAgICAgICAgICAgIDxnIHRyYW5zZm9ybT0idHJhbnNsYXRlKDU2LjAwMDAwMCwgMTYwLjAwMDAwMCkiIGlkPSJpY29ucyI+JiN4YTsgICAgICAgICAgICAgICAgPHBhdGggaWQ9IndpbmRvd3MtWyMxNzRdIiBkPSJNMTMuMTQ1ODY0Nyw3Mjg5LjQzNDI2IEMxMy4xNTA4NzcyLDcyOTEuNDMzMTYgMTMuMTU2ODkyMiw3Mjk0LjgyOTI5IDEzLjE2MTkwNDgsNzI5Ny40Njg4NCBDMTYuNzc1OTM5OCw3Mjk3Ljk1NzU3IDIwLjM4OTk3NDksNzI5OC40NjEzIDIzLjk5Nzk5NSw3Mjk5IEMyMy45OTc5OTUsNzI5NS44NDg3MyAyNC4wMDIwMDUsNzI5Mi43MTE0NiAyMy45OTc5OTUsNzI4OS43MTMxMSBDMjAuMzgwOTUyNCw3Mjg5LjcxMzExIDE2Ljc2NDkxMjMsNzI4OS40MzQyNiAxMy4xNDU4NjQ3LDcyODkuNDM0MjYgTTQsNzI4OS40MzUyNiBMNCw3Mjk2LjIyMTUzIEM2LjcyNTgxNDU0LDcyOTYuNTg5MzMgOS40NTE2MjkwNyw3Mjk2Ljk0MTEzIDEyLjE3MjQzMTEsNzI5Ny4zNDI5MSBDMTIuMTc3NDQzNiw3Mjk0LjcxNzM2IDEyLjE3MDQyNjEsNzI5Mi4wOTA4IDEyLjE3MDQyNjEsNzI4OS40NjUyNCBDOS40NDY2MTY1NCw3Mjg5LjQ3MDI0IDYuNzIzODA5NTIsNzI4OS40MjYyNyA0LDcyODkuNDM1MjYgTTQsNzI4MS44NDM0NCBMNCw3Mjg4LjYxMDcxIEM2LjcyNTgxNDU0LDcyODguNjE3NzEgOS40NTE2MjkwNyw3Mjg4LjU3NjczIDEyLjE3NzQ0MzYsNzI4OC41Nzk3MyBDMTIuMTc1NDM4Niw3Mjg1Ljk2MDE3IDEyLjE3NTQzODYsNzI4My4zNDM2MSAxMi4xNzI0MzExLDcyODAuNzI0MDUgQzkuNDQ0NjExNTMsNzI4MS4wNjQ4NiA2LjcxNjc5MTk4LDcyODEuNDI1NjcgNCw3MjgxLjg0MzQ0IE0yNCw3Mjg4LjQ3MTc5IEMyMC4zODc5Njk5LDcyODguNDg1NzggMTYuNzc1OTM5OCw3Mjg4LjU0MDc1IDEzLjE2MTkwNDgsNzI4OC41NTE3NSBDMTMuMTU5ODk5Nyw3Mjg1Ljg4OTIxIDEzLjE1OTg5OTcsNzI4My4yMjk2NyAxMy4xNjE5MDQ4LDcyODAuNTY5MTQgQzE2Ljc2ODkyMjMsNzI4MC4wMTg0NCAyMC4zODM5NTk5LDcyNzkuNTAwNzIgMjMuOTk3OTk1LDcyNzkgQzI0LDcyODIuMTU4MjYgMjMuOTk3OTk1LDcyODUuMzEzNTMgMjQsNzI4OC40NzE3OSI+JiN4YTsmI3hhOzwvcGF0aD4mI3hhOyAgICAgICAgICAgIDwvZz4mI3hhOyAgICAgICAgPC9nPiYjeGE7ICAgIDwvZz4mI3hhOzwvc3ZnPg==;" vertex="1" parent="1">
          <mxGeometry x="200" y="140" width="70" height="70" as="geometry" />
        </mxCell>
        <mxCell id="4FjkceuPpHACINrKQj8p-3" value="" style="shape=image;verticalLabelPosition=bottom;labelBackgroundColor=default;verticalAlign=top;aspect=fixed;imageAspect=0;image=data:image/svg+xml,PHN2ZyB4bWxuczp4bGluaz0iaHR0cDovL3d3dy53My5vcmcvMTk5OS94bGluayIgeG1sbnM9Imh0dHA6Ly93d3cudzMub3JnLzIwMDAvc3ZnIiB2ZXJzaW9uPSIxLjEiIHZpZXdCb3g9Ii0xLjUgMCAyMCAyMCIgaGVpZ2h0PSI4MDBweCIgd2lkdGg9IjgwMHB4Ij4mI3hhOyAgICAmI3hhOyAgICA8dGl0bGU+YXBwbGUgWyMxNzNdPC90aXRsZT4mI3hhOyAgICA8ZGVzYz5DcmVhdGVkIHdpdGggU2tldGNoLjwvZGVzYz4mI3hhOyAgICA8ZGVmcz4mI3hhOyYjeGE7PC9kZWZzPiYjeGE7ICAgIDxnIGZpbGwtcnVsZT0iZXZlbm9kZCIgZmlsbD0ibm9uZSIgc3Ryb2tlLXdpZHRoPSIxIiBzdHJva2U9Im5vbmUiIGlkPSJQYWdlLTEiPiYjeGE7ICAgICAgICA8ZyBmaWxsPSIjMDAwMDAwIiB0cmFuc2Zvcm09InRyYW5zbGF0ZSgtMTAyLjAwMDAwMCwgLTc0MzkuMDAwMDAwKSIgaWQ9IkRyaWJiYmxlLUxpZ2h0LVByZXZpZXciPiYjeGE7ICAgICAgICAgICAgPGcgdHJhbnNmb3JtPSJ0cmFuc2xhdGUoNTYuMDAwMDAwLCAxNjAuMDAwMDAwKSIgaWQ9Imljb25zIj4mI3hhOyAgICAgICAgICAgICAgICA8cGF0aCBpZD0iYXBwbGUtWyMxNzNdIiBkPSJNNTcuNTcwODg3Myw3MjgyLjE5Mjk2IEM1OC4yOTk5NTk4LDcyODEuMzQ3OTcgNTguNzkxNDAxMiw3MjgwLjE3MDk4IDU4LjY1NjkxMjEsNzI3OSBDNTcuNjA2Mjc5Miw3Mjc5LjA0IDU2LjMzNTIwNTUsNzI3OS42NzA5OSA1NS41ODE4NjQzLDcyODAuNTE0OTggQzU0LjkwNTM3NCw3MjgxLjI2Mzk3IDU0LjMxNDgzNTQsNzI4Mi40NjA5NSA1NC40NzM1OTMyLDcyODMuNjA4OTQgQzU1LjY0NTU2OTYsNzI4My42OTU5MyA1Ni44NDE4MTQ4LDcyODMuMDM4OTQgNTcuNTcwODg3Myw3MjgyLjE5Mjk2IE02MC4xOTg5ODY0LDcyODkuNjI0ODUgQzYwLjIyODMxMTEsNzI5Mi42NTE4MSA2Mi45Njk2NjQxLDcyOTMuNjU4NzkgNjMsNzI5My42NzE3OSBDNjIuOTc3NzUzNyw3MjkzLjc0Mjc5IDYyLjU2MjE1Miw3Mjk1LjEwNjc3IDYxLjU1NjAxMTcsNzI5Ni41MTY3NSBDNjAuNjg1MzcxOCw3Mjk3LjczNDc0IDU5Ljc4MjM3MzUsNzI5OC45NDc3MiA1OC4zNTk2MjA0LDcyOTguOTczNzIgQzU2Ljk2MjE0NzIsNzI5OC45OTg3MiA1Ni41MTIxNjQ4LDcyOTguMTc5NzMgNTQuOTEzNDYzNSw3Mjk4LjE3OTczIEM1My4zMTU3NzM1LDcyOTguMTc5NzMgNTIuODE2MjQyNSw3Mjk4Ljk0NzcyIDUxLjQ5MzU5NzgsNzI5OC45OTg3MiBDNTAuMTIwMzkzMyw3Mjk5LjA0NzcyIDQ5LjA3MzgwNTIsNzI5Ny42ODA3NCA0OC4xOTcwOTgsNzI5Ni40NjY3NiBDNDYuNDAzMjM1OSw3MjkzLjk4Mzc5IDQ1LjAzMzA2NDksNzI4OS40NDk4NSA0Ni44NzM0NDIxLDcyODYuMzg5OSBDNDcuNzg3NTYzNSw3Mjg0Ljg3MDkyIDQ5LjQyMDY0NTUsNzI4My45MDc5MyA1MS4xOTQyODM3LDcyODMuODgzOTMgQzUyLjU0MjIwODMsNzI4My44NTg5MyA1My44MTUzMDQ0LDcyODQuNzUyOTIgNTQuNjM5NDI5NCw3Mjg0Ljc1MjkyIEM1NS40NjM1NTQzLDcyODQuNzUyOTIgNTcuMDEwNjg0Niw3MjgzLjY3NzkzIDU4LjYzNjY4ODIsNzI4My44MzU5MyBDNTkuMzE3MjIzMiw3MjgzLjg2MjkzIDYxLjIyODM4NDIsNzI4NC4wOTg5MyA2Mi40NTQ5NjUyLDcyODUuODE5OSBDNjIuMzU1ODY4LDcyODUuODc4OSA2MC4xNzQ3MTc3LDcyODcuMDk0ODkgNjAuMTk4OTg2NCw3Mjg5LjYyNDg1Ij4mI3hhOyYjeGE7PC9wYXRoPiYjeGE7ICAgICAgICAgICAgPC9nPiYjeGE7ICAgICAgICA8L2c+JiN4YTsgICAgPC9nPiYjeGE7PC9zdmc+;" vertex="1" parent="1">
          <mxGeometry x="290" y="125" width="80" height="80" as="geometry" />
        </mxCell>
        <mxCell id="4FjkceuPpHACINrKQj8p-4" value="" style="shape=image;verticalLabelPosition=bottom;labelBackgroundColor=default;verticalAlign=top;aspect=fixed;imageAspect=0;image=data:image/svg+xml,PHN2ZyB4bWxucz0iaHR0cDovL3d3dy53My5vcmcvMjAwMC9zdmciIGZpbGw9Im5vbmUiIHZpZXdCb3g9IjAgMCAxNiAxNiIgaGVpZ2h0PSI4MDBweCIgd2lkdGg9IjgwMHB4Ij48cGF0aCBkPSJNOC4yOTQgMWMtLjA5IDAtLjE4NC4wMDUtLjI4LjAxMi0yLjQ2NS4xOTQtMS44MTEgMi44MDQtMS44NSAzLjY3NC0uMDQzLjYzNy0uMTc0IDEuMTQtLjYxMiAxLjc2Mi0uNTE2LjYxMy0xLjI0IDEuNjA0LTEuNTg0IDIuNjM3LS4xNjIuNDg1LS4yNC45ODItLjE2NyAxLjQ1MmEuMjQ3LjI0NyAwIDAwLS4wNjQuMDc5Yy0uMTUyLjE1Ni0uMjYzLjM1LS4zODcuNDktLjExNi4xMTUtLjI4My4xNTUtLjQ2NS4yMzItLjE4My4wOC0uMzg0LjE1Ny0uNTA0LjM5N2EuNzguNzggMCAwMC0uMDc3LjM1MWMwIC4xMTYuMDE2LjIzNC4wMzIuMzEzLjAzNC4yMzMuMDY4LjQyNS4wMjMuNTY2LS4xNDUuMzk2LS4xNjMuNjY4LS4wNjIuODY1LjEwMi4xOTUuMzEzLjI3NS41NDkuMzUxLjQ3Mi4xMTcgMS4xMTQuMDc5IDEuNjE4LjM1LjU0LjI3MiAxLjA4OC4zOSAxLjUyNi4yNzQuMzA3LS4wNjcuNTY2LS4yNy43MDUtLjU1Mi4zNDItLjAwMS43MTctLjE1NyAxLjMxOC0uMTk0LjQwOC0uMDM0LjkxOC4xNTUgMS41MDMuMTE2LjAxNS4wNzguMDM3LjExNi4wNjcuMTk0bC4wMDEuMDAyYy4yMjkuNDU0LjY1LjY2IDEuMS42MjUuNDUtLjAzNS45MjgtLjMxMyAxLjMxNi0uNzYyLjM2OC0uNDQ2Ljk4Mi0uNjMyIDEuMzg3LS44NzcuMjAzLS4xMTYuMzY3LS4yNzMuMzc5LS40OTcuMDEzLS4yMzQtLjExNy0uNDczLS40MTctLjgwM3YtLjA1NmwtLjAwMi0uMDAyYy0uMDk5LS4xMTctLjE0NS0uMzEyLS4xOTctLjU0LS4wNS0uMjM0LS4xMDYtLjQ1OS0uMjg3LS42MWgtLjAwMWMtLjAzNS0uMDMyLS4wNzItLjA0LS4xMS0uMDhhLjIwOC4yMDggMCAwMC0uMTEtLjAzN2MuMjUtLjc0NS4xNTMtMS40ODctLjEwMi0yLjE1NC0uMzEtLjgyMy0uODU0LTEuNTQtMS4yNjktMi4wMzItLjQ2NC0uNTg3LS45MTktMS4xNDItLjkxLTEuOTY1LjAxNi0xLjI1NS4xMzgtMy41NzgtMi4wNjctMy41ODF6bS4zMDkgMS45ODZoLjAwN2MuMTI1IDAgLjIzMS4wMzYuMzQuMTE2YS44OS44OSAwIDAxLjI1Ni4zMWMuMDYyLjE1Mi4wOTMuMjY4LjA5Ny40MjMgMC0uMDEyLjAwNC0uMDIzLjAwNC0uMDM1di4wNjFhLjA1LjA1IDAgMDEtLjAwMy0uMDEybC0uMDAyLS4wMTRjLS4wMDEuMTQyLS4wMy4yODItLjA4Ny40MTJhLjU1Ni41NTYgMCAwMS0uMTI1LjE5NS40MTUuNDE1IDAgMDAtLjA1MS0uMDI0Yy0uMDYtLjAyNy0uMTE1LS4wMzgtLjE2Ni0uMDc4YS43NjUuNzY1IDAgMDAtLjEyOC0uMDM4Yy4wMy0uMDM1LjA4NS0uMDc4LjEwNy0uMTE2YS42OS42OSAwIDAwLjA1MS0uMjM0VjMuOTRhLjcwNi43MDYgMCAwMC0uMDM1LS4yMzNjLS4wMjctLjA3OS0uMDYtLjExNy0uMTA3LS4xOTUtLjA1LS4wMzgtLjA5OC0uMDc3LS4xNTYtLjA3N2gtLjAxYy0uMDU0IDAtLjEwMi4wMTgtLjE1Mi4wNzdhLjQ2Ny40NjcgMCAwMC0uMTIuMTk1LjY4OC42ODggMCAwMC0uMDUyLjIzNHYuMDFjMCAuMDUzLjAwNC4xMDUuMDExLjE1Ni0uMTEyLS4wMzktLjI1NS0uMDc4LS4zNTQtLjExN2EuOTU0Ljk1NCAwIDAxLS4wMS0uMTE3VjMuODZhMS4wMzQgMS4wMzQgMCAwMS4wODctLjQ0OC42My42MyAwIDAxLjI1MS0uMzEuNTc1LjU3NSAwIDAxLjM0Ny0uMTE3em0tMS43MjguMDM1aC4wMmMuMDg0IDAgLjE1OC4wMjguMjM0LjA3OGEuODA2LjgwNiAwIDAxLjIuMjcyYy4wNTMuMTE2LjA4Mi4yMzMuMDkuMzg5di4wMDJhLjg1Ni44NTYgMCAwMS0uMDAyLjE1NXYuMDQ3bC0uMDQ4LjAxNGMtLjA4OS4wMzItLjE2LjA3OS0uMjMuMTE3YS42MzMuNjMzIDAgMDAuMDAyLS4xNTZWMy45M2MtLjAwNy0uMDc4LS4wMjMtLjExNy0uMDQ3LS4xOTRhLjM1OC4zNTggMCAwMC0uMDk3LS4xNTYuMTQ1LjE0NSAwIDAwLS4xMDctLjAzN2gtLjAxMmMtLjA0Mi4wMDMtLjA3Ni4wMjMtLjEwOS4wNzdhLjMyMi4zMjIgMCAwMC0uMDcuMTU3LjU1LjU1IDAgMDAtLjAxMy4xOTN2LjAwOGMuMDA3LjA4LjAyMS4xMTcuMDQ3LjE5NWEuMzYzLjM2MyAwIDAwLjA5Ni4xNTdjLjAwNi4wMDUuMDEyLjAxLjAyLjAxNC0uMDQuMDMzLS4wNjguMDQtLjEwMi4wNzlhLjE3Ny4xNzcgMCAwMS0uMDc3LjA0IDEuNTMgMS41MyAwIDAxLS4xNi0uMjM1IDEuMDM0IDEuMDM0IDAgMDEtLjA5LS4zODljLS4wMS0uMTMyLjAwNS0uMjY0LjA0Ni0uMzlhLjgzNC44MzQgMCAwMS4xNjUtLjMxMmMuMDc1LS4wNzcuMTUyLS4xMTYuMjQ0LS4xMTZ6bS43OTkuOTk1Yy4xOTQgMCAuNDI4LjAzOC43MS4yMzMuMTcuMTE2LjMwNC4xNTcuNjEzLjI3M2guMDAyYy4xNDkuMDc5LjIzNi4xNTUuMjc5LjIzMnYtLjA3NmEuMzMzLjMzMyAwIDAxLjAwOS4yNzRjLS4wNzIuMTgtLjMwMS4zNzUtLjYyLjQ5MXYuMDAxYy0uMTU2LjA4LS4yOTIuMTk1LS40NTIuMjcyLS4xNjEuMDc4LS4zNDMuMTctLjU5LjE1NWEuNjY0LjY2NCAwIDAxLS4yNjItLjAzOSAyLjA3NyAyLjA3NyAwIDAxLS4xODgtLjExNWMtLjExMy0uMDc5LS4yMTEtLjE5NC0uMzU3LS4yNzF2LS4wMDNoLS4wMDNjLS4yMzMtLjE0NC0uMzU5LS4yOTktLjQtLjQxNC0uMDQtLjE1Ny0uMDAzLS4yNzUuMTEzLS4zNS4xMy0uMDguMjIxLS4xNTkuMjgyLS4xOTcuMDYtLjA0My4wODMtLjA1OS4xMDItLjA3NmguMDAxdi0uMDAyYy4wOTktLjExNy4yNTUtLjI3NC40OS0uMzUuMDgtLjAyMS4xNzEtLjAzOC4yNzItLjAzOGgtLjAwMXptMS42MzMgMS4yNWMuMjEuODI2LjY5OCAyLjAyNiAxLjAxMiAyLjYwOS4xNjcuMzExLjUuOTY3LjY0MyAxLjc2NC4wOTEtLjAwMy4xOTMuMDEuMy4wMzcuMzc2LS45NzUtLjMxOS0yLjAyMi0uNjM2LTIuMzE0LS4xMjgtLjExNi0uMTM1LS4xOTUtLjA3MS0uMTk1LjM0NC4zMTIuNzk2LjkxNy45NiAxLjYwOC4wNzUuMzEyLjA5My42NDQuMDEyLjk3NC4wMzkuMDE3LjA3OS4wMzUuMTIuMDQuNjAxLjMxMS44MjQuNTQ3LjcxNy44OTZ2LS4wMjVjLS4wMzUtLjAwMi0uMDcgMC0uMTA1IDBoLS4wMWMuMDg5LS4yNzItLjEwNi0uNDgxLS42Mi0uNzE0LS41MzQtLjIzMy0uOTYtLjE5Ni0xLjAzMy4yNzEtLjAwNS4wMjUtLjAwOC4wMzktLjAxLjA3OS0uMDQuMDEzLS4wODIuMDMtLjEyMy4wMzctLjI1LjE1Ny0uMzg2LjM5LS40NjIuNjkzLS4wNzYuMzEtLjEuNjc0LS4xMiAxLjA5di4wMDJjLS4wMTEuMTk1LS4wOTkuNDg5LS4xODYuNzg3LS44NzUuNjI2LTIuMDg4Ljg5Ny0zLjEyLjE5NWExLjU0MyAxLjU0MyAwIDAwLS4yMzQtLjMxLjg0Ni44NDYgMCAwMC0uMTYtLjE5NS45NjMuOTYzIDAgMDAuMjctLjA0LjM1OS4zNTkgMCAwMC4xODQtLjE5NGMuMDYzLS4xNTYgMC0uNDA3LS4yMDEtLjY3OC0uMjAxLS4yNzMtLjU0My0uNTgtMS4wNDMtLjg4OC0uMzY4LS4yMzMtLjU3NS0uNTA3LS42NzEtLjgxNC0uMDk2LS4zMTItLjA4My0uNjMzLS4wMDktLjk2LjE0My0uNjI0LjUxLTEuMjMuNzQzLTEuNjExLjA2My0uMDM4LjAyMi4wNzgtLjIzOC41NjgtLjIzLjQzOC0uNjY1IDEuNDU2LS4wNyAyLjI0OC4wMjItLjU3OC4xNS0xLjE0Ni4zNzctMS42NzguMzI5LS43NDUgMS4wMTYtMi4wNDQgMS4wNy0zLjA3My4wMjkuMDIxLjEyNy4wOC4xNy4xMTguMTI2LjA3OC4yMi4xOTQuMzQzLjI3MWEuNjk0LjY5NCAwIDAwLjUxMS4xOTZsLjA2NS4wMDNjLjI0IDAgLjQyNS0uMDc4LjU4MS0uMTU2LjE3LS4wNzguMzA0LS4xOTUuNDMyLS4yMzNoLjAwM2MuMjcyLS4wOC40ODctLjIzNS42MDktLjQwOXptMS4yNzUgNS4yMjVjLjAyMS4zNS4yLjcyNi41MTQuODAzLjM0My4wNzguODM3LS4xOTQgMS4wNDUtLjQ0NmwuMTIzLS4wMDZjLjE4NC0uMDA0LjMzNy4wMDYuNDk0LjE1NmwuMDAyLjAwMmMuMTIxLjExNi4xNzguMzEuMjI4LjUxMS4wNS4yMzMuMDkuNDU1LjIzOS42MjIuMjgzLjMwNy4zNzYuNTI4LjM3LjY2NWwuMDAzLS4wMDR2LjAxbC0uMDAyLS4wMDdjLS4wMDkuMTUzLS4xMDguMjMxLS4yOS4zNDctLjM2OC4yMzQtMS4wMi40MTYtMS40MzQuOTE2LS4zNi40My0uOC42NjUtMS4xODguNjk1LS4zODcuMDMtLjcyMS0uMTE3LS45MTgtLjUyNGwtLjAwMy0uMDAyYy0uMTIyLS4yMzMtLjA3LS41OTcuMDMzLS45ODUuMTAzLS4zOS4yNS0uNzg0LjI3LTEuMTA3LjAyMi0uNDE3LjA0NC0uNzc5LjExNC0xLjA1OC4wNy0uMjcxLjE4LS40NjUuMzc0LS41NzRsLjAyNi0uMDEzdi0uMDAxem0tNi4zMDguMDI4aC4wMDZhLjUzLjUzIDAgMDEuMDkxLjAwOWMuMjIuMDMyLjQxMi4xOTQuNTk3LjQzOGwuNTMuOTcuMDAzLjAwM2MuMTQxLjMxLjQ0LjYyLjY5My45NTUuMjUzLjM0OC40NS42Ni40MjUuOTE1di4wMDRjLS4wMzMuNDM0LS4yOC42Ny0uNjU2Ljc1NS0uMzc2LjA3OS0uODg3IDAtMS4zOTctLjI3LS41NjUtLjMxNC0xLjIzNS0uMjc0LTEuNjY3LS4zNTItLjIxNS0uMDM5LS4zNTUtLjExNy0uNDIxLS4yMzMtLjA2NC0uMTE3LS4wNjYtLjM1Mi4wNzEtLjcxOHYtLjAwMmwuMDAyLS4wMDJjLjA2OC0uMTk1LjAxNy0uNDM5LS4wMTYtLjY1Mi0uMDMyLS4yMzQtLjA0OS0uNDE0LjAyNS0uNTQ5LjA5My0uMTk0LjIzLS4yMzMuNDAyLS4zMS4xNzItLjA4LjM3NC0uMTE4LjUzNC0uMjc1aC4wMDFjLjE1LS4xNTcuMjYtLjM1MS4zOS0uNDkuMTEtLjExNy4yMjItLjE5Ni4zODctLjE5NnpNOC40NSA1LjIyNmMtLjI1NC4xMTctLjU1MS4zMTItLjg2OC4zMTItLjMxNiAwLS41NjYtLjE1NS0uNzQ3LS4yNzItLjA5LS4wNzgtLjE2My0uMTU2LS4yMTctLjE5NS0uMDk2LS4wNzgtLjA4NC0uMTk0LS4wNDQtLjE5NC4wNjQuMDEuMDc2LjA3OC4xMTcuMTE3LjA1Ni4wMzguMTI1LjExNi4yMS4xOTQuMTcuMTE2LjM5Ni4yNzIuNjguMjcyLjI4MyAwIC42MTUtLjE1Ni44MTYtLjI3Mi4xMTQtLjA3OC4yNi0uMTk0LjM3OC0uMjcyLjA5LS4wOC4wODctLjE1Ni4xNjMtLjE1Ni4wNzQuMDEuMDIuMDc4LS4wODYuMTk0LS4xMy4wOTgtLjI2NC4xODktLjQwMy4yNzN6bS0uNjMxLS45MjNWNC4yOWMtLjAwNC0uMDEyLjAwNy0uMDI0LjAxNy0uMDMuMDQzLS4wMjQuMTA1LS4wMTUuMTUxLjAwMy4wMzcgMCAuMDk0LjA0LjA4OC4wNzktLjAwNC4wMjktLjA1LjAzOC0uMDc5LjAzOC0uMDMyIDAtLjA1NC0uMDI1LS4wODItLjA0LS4wMy0uMDEtLjA4NS0uMDA0LS4wOTUtLjAzN3ptLS4zMjIgMGMtLjAxMS4wMzQtLjA2Ni4wMjgtLjA5Ny4wMzgtLjAyNy4wMTUtLjA1LjA0LS4wODEuMDQtLjAzIDAtLjA3Ni0uMDEyLS4wOC0uMDQtLjAwNS0uMDM4LjA1Mi0uMDc3LjA4OC0uMDc3LjA0Ny0uMDE4LjEwNy0uMDI4LjE1MS0uMDAzLjAxMS4wMDUuMDIxLjAxNy4wMTguMDI5di4wMTJoLjAwMXoiIGZpbGw9IiMwMDAwMDAiLz48L3N2Zz4=;" vertex="1" parent="1">
          <mxGeometry x="380" y="125" width="90" height="90" as="geometry" />
        </mxCell>
        <mxCell id="4FjkceuPpHACINrKQj8p-5" value="" style="shape=image;verticalLabelPosition=bottom;labelBackgroundColor=default;verticalAlign=top;aspect=fixed;imageAspect=0;image=data:image/svg+xml,PHN2ZyB4bWxucz0iaHR0cDovL3d3dy53My5vcmcvMjAwMC9zdmciIHZpZXdCb3g9IjAgMCAxOTIwIDE5MjAiIGhlaWdodD0iODAwcHgiIHdpZHRoPSI4MDBweCIgZmlsbD0iIzAwMDAwMCI+JiN4YTsgICAgPHBhdGggZmlsbC1ydWxlPSJldmVub2RkIiBkPSJNMTMwNi4wODYgMjUuMjI1YzE3LjE2Ny0yNS45NzYgNTIuMjktMzMuMDkxIDc4LjI2Ny0xNS42OTggMjUuOTc2IDE3LjI4IDMyLjk3OCA1Mi4yOSAxNS42OTggNzguMjY2bC04NS43MiAxMjguNjM3YzI5LjI1IDE4Ljg2MSA1Ny4zNzIgMzkuNDE2IDgzLjEyMiA2Mi45MDcgMTE4LjQ3MyAxMDguNjQ4IDE4My43NTIgMjUzLjQzNSAxODMuNzUyIDQwNy43MXY3MzQuMTAyYzAgODguMzE4LTc2LjAwOCAxNjAuMDM0LTE2OS40MDggMTYwLjAzNGgtMTY5LjQwOVYxOTIwSDExMjkuNDV2LTMzOC44MTdINzkwLjYzM1YxOTIwSDY3Ny42OTR2LTMzOC44MTdINTA4LjI4NmMtOTMuNCAwLTE2OS40MDgtNzEuNzE2LTE2OS40MDgtMTYwLjAzNFY3MDkuMjk2YzAtMjAwLjU4IDEwNy4yOTItMzgwLjI2NiAyNjkuMjQ2LTQ4OC45MTNMNTE5LjU4IDg3LjkwNmMtMTcuMzkzLTI1Ljk3Ni0xMC4zOS02MC45ODcgMTUuNDcyLTc4LjM4IDI1Ljg2My0xNy4yOCA2MC45ODctMTAuMjc3IDc4LjM4IDE1LjU4Nmw5NC4zMDQgMTQxLjA2YzU5Ljg1OC0yNS44NjIgMTIzLjc4LTQ0LjYxIDE5MS44ODMtNTAuNTk2IDEwOS4zMjUtOS42IDIxNi45NTYgNy45MDYgMzE0LjA4MyA0OC4xMTJaTTIyNS45MzkgNzM0LjE0MnY1NjQuNjk0SDExM1Y3MzQuMTQyaDExMi45MzlabTE1ODEuMTQ0IDB2NTY0LjY5NGgtMTEyLjk0VjczNC4xNDJoMTEyLjk0Wm0tNjIxLjE2NC0yODIuMzQ3Yy02Mi4yMyAwLTExMi45MzkgNTAuNzEtMTEyLjkzOSAxMTIuOTM5IDAgNjIuMjMgNTAuNzEgMTEyLjkzOSAxMTIuOTM5IDExMi45MzkgNjIuMjMgMCAxMTIuOTM5LTUwLjcxIDExMi45MzktMTEyLjk0IDAtNjIuMjI4LTUwLjcxLTExMi45MzgtMTEyLjkzOS0xMTIuOTM4Wm0tNDUxLjc1NSAwYy02Mi4yMyAwLTExMi45NCA1MC43MS0xMTIuOTQgMTEyLjkzOSAwIDYyLjIzIDUwLjcxIDExMi45MzkgMTEyLjk0IDExMi45MzkgNjIuMjI5IDAgMTEyLjkzOC01MC43MSAxMTIuOTM4LTExMi45NCAwLTYyLjIyOC01MC43MS0xMTIuOTM4LTExMi45MzgtMTEyLjkzOFoiLz4mI3hhOzwvc3ZnPg==;" vertex="1" parent="1">
          <mxGeometry x="480" y="130" width="80" height="80" as="geometry" />
        </mxCell>
        <mxCell id="4FjkceuPpHACINrKQj8p-6" value="" style="shape=image;verticalLabelPosition=bottom;labelBackgroundColor=default;verticalAlign=top;aspect=fixed;imageAspect=0;image=data:image/svg+xml,PHN2ZyB4bWxucz0iaHR0cDovL3d3dy53My5vcmcvMjAwMC9zdmciIHJvbGU9ImltZyIgdmlld0JveD0iMCAwIDI0IDI0IiBoZWlnaHQ9IjgwMHB4IiB3aWR0aD0iODAwcHgiIGZpbGw9IiMwMDAwMDAiPjx0aXRsZT5GcmVlQlNEIGljb248L3RpdGxlPjxwYXRoIGQ9Ik0yMy43MjUuNTg4YzEuMjczIDEuMjcyLTIuMjU0IDYuODYyLTIuODUgNy40NTgtLjU5Ny41OTYtMi4xMTEuMDQ4LTMuMzgzLTEuMjI0LTEuMjcyLTEuMjcyLTEuODItMi43ODctMS4yMjQtMy4zODMuNTk2LS41OTYgNi4xODYtNC4xMjMgNy40NTctMi44NXpNNS44ODUgMS45MzRDMy45NDMuODMyIDEuMTgtLjM5NC4zLjQ4NWMtLjg5Ljg5LjM4IDMuNzE3IDEuNDk0IDUuNjYzLjk5LTEuNzIzIDIuNC0zLjE3NCA0LjA5MS00LjIxNHptMTUuOSA1LjY3NGMuMTc5LjYwNi4xNDcgMS4xMDctLjE0MyAxLjM5Ny0uNjc4LjY3OC0yLjUwOC0uMDQ0LTQuMTU3LTEuNjE0YTguMzIzIDguMzIzIDAgMCAxLS4zNDItLjMyM2MtLjU5Ny0uNTk3LTEuMDYtMS4yMzItMS4zNTgtMS44MTctLjU3OC0xLjAzNi0uNzIyLTEuOTUyLS4yODUtMi4zODguMjM4LS4yMzguNjE4LS4zMDMgMS4wODMtLjIyLjMwMy0uMTkxLjY2LS40MDUgMS4wNTItLjYyM2ExMS40OTIgMTEuNDkyIDAgMCAwLTUuMzMtMS4zMDFDNS45MjcuNzE5Ljc1NyA1Ljg4OS43NTcgMTIuMjY3YzAgNi4zNzcgNS4xNyAxMS41NDggMTEuNTQ4IDExLjU0OHMxMS41NDktNS4xNyAxMS41NDktMTEuNTQ4YzAtMi4wNi0uNTQtMy45OTEtMS40ODUtNS42NjZhMjIuMjcgMjIuMjcgMCAwIDEtLjU4NCAxLjAwN3oiLz48L3N2Zz4=;" vertex="1" parent="1">
          <mxGeometry x="680" y="140" width="57" height="57" as="geometry" />
        </mxCell>
        <mxCell id="4FjkceuPpHACINrKQj8p-7" value="" style="shape=image;verticalLabelPosition=bottom;labelBackgroundColor=default;verticalAlign=top;aspect=fixed;imageAspect=0;image=data:image/svg+xml,PHN2ZyB4bWxucz0iaHR0cDovL3d3dy53My5vcmcvMjAwMC9zdmciIHZlcnNpb249IjEuMSIgdmlld0JveD0iMCAwIDMyIDMyIiBoZWlnaHQ9IjgwMHB4IiB3aWR0aD0iODAwcHgiIGZpbGw9IiMwMDAwMDAiPiYjeGE7PHRpdGxlPmlvczwvdGl0bGU+JiN4YTs8cGF0aCBkPSJNMS4xMTkgMTIuNjMzdjEwLjU3NmgyLjQ5di0xMC41NzZoLTIuNDl6TTExLjg4MiAxMC43NjhjMi41NTMgMCA0LjE5MyAyLjA0MCA0LjE5MyA1LjIzMiAwIDMuMjE3LTEuNjQgNS4yNTctNC4xOTMgNS4yNTctMi41NzggMC00LjIwNi0yLjA0MC00LjIwNi01LjI1NyAwLTMuMTkyIDEuNjI3LTUuMjMyIDQuMjA2LTUuMjMyek0yNS40NSA4LjU3OGMtMy4xMjkgMC01LjM1NyAxLjcyNy01LjM1NyA0LjI5MyAwIDIuMDQwIDEuMjY0IDMuMzE3IDMuOTE4IDMuOTNsMS44NjUgMC40NTFjMS44MTUgMC40MTMgMi41NTMgMS4wMTQgMi41NTMgMi4wNTMgMCAxLjIwMi0xLjIxNCAyLjA1My0yLjk0MSAyLjA1My0xLjc2NSAwLTMuMDkyLTAuODY0LTMuMjI5LTIuMTloLTIuNTAzYzAuMSAyLjY1NCAyLjI3OCA0LjI4MSA1LjU4MiA0LjI4MSAzLjQ5MiAwIDUuNjgzLTEuNzE1IDUuNjgzLTQuNDQzIDAtMi4xNC0xLjI1Mi0zLjM1NC00LjE1NS00LjAxOGwtMS42NjUtMC4zNzZjLTEuNzY1LTAuNDI2LTIuNDkxLTAuOTg5LTIuNDkxLTEuOTQgMC0xLjIwMiAxLjEwMS0yLjAwMyAyLjcyOS0yLjAwMyAxLjY0IDAgMi43NjYgMC44MTQgMi44OTEgMi4xNTNoMi40NTNjLTAuMDYzLTIuNTI4LTIuMTUzLTQuMjQzLTUuMzMyLTQuMjQzek0xMS44ODIgOC41NzhjLTQuMjA1LTAtNi44MzQgMi44NjYtNi44MzQgNy40MjIgMCA0LjU5NCAyLjYyOCA3LjQ0NyA2LjgzNCA3LjQ0NyA0LjE4MSAwIDYuODIxLTIuODU0IDYuODIxLTcuNDQ3IDAtNC41NTYtMi42NDEtNy40MjItNi44MjItNy40MjJ6TTIuMzU3IDguNTUzYy0wLjAwNy0wLTAuMDE2LTAtMC4wMjQtMC0wLjc0NyAwLTEuMzUyIDAuNjA1LTEuMzUyIDEuMzUyczAuNjA1IDEuMzUyIDEuMzUyIDEuMzUyYzAuMDA5IDAgMC4wMTctMCAwLjAyNi0wbC0wLjAwMSAwYzAuMDExIDAgMC4wMjQgMC4wMDEgMC4wMzcgMC4wMDEgMC43NDcgMCAxLjM1Mi0wLjYwNSAxLjM1Mi0xLjM1MnMtMC42MDUtMS4zNTItMS4zNTItMS4zNTJjLTAuMDEzIDAtMC4wMjYgMC0wLjAzOSAwLjAwMWwwLjAwMi0weiIvPiYjeGE7PC9zdmc+;" vertex="1" parent="1">
          <mxGeometry x="570" y="123.5" width="90" height="90" as="geometry" />
        </mxCell>
      </root>
    </mxGraphModel>
  </diagram>
</mxfile>
